<?xml version="1.0" encoding="UTF-8" standalone="no"?>
<!-- Created with Inkscape (http://www.inkscape.org/) -->

<svg
   xmlns:dc="http://purl.org/dc/elements/1.1/"
   xmlns:cc="http://creativecommons.org/ns#"
   xmlns:rdf="http://www.w3.org/1999/02/22-rdf-syntax-ns#"
   xmlns:svg="http://www.w3.org/2000/svg"
   xmlns="http://www.w3.org/2000/svg"
   xmlns:sodipodi="http://sodipodi.sourceforge.net/DTD/sodipodi-0.dtd"
   xmlns:inkscape="http://www.inkscape.org/namespaces/inkscape"
   id="svg4292"
   version="1.1"
   inkscape:version="0.48.2 r9819"
   width="425"
   height="630"
   sodipodi:docname="LEGO MOVIE - Emmet.svg">
  <metadata
     id="metadata4298">
    <rdf:RDF>
      <cc:Work
         rdf:about="">
        <dc:format>image/svg+xml</dc:format>
        <dc:type
           rdf:resource="http://purl.org/dc/dcmitype/StillImage" />
        <dc:title></dc:title>
      </cc:Work>
    </rdf:RDF>
  </metadata>
  <defs
     id="defs4296" />
  <sodipodi:namedview
     pagecolor="#ffffff"
     bordercolor="#666666"
     borderopacity="1"
     objecttolerance="10"
     gridtolerance="10"
     guidetolerance="10"
     inkscape:pageopacity="0"
     inkscape:pageshadow="2"
     inkscape:window-width="1280"
     inkscape:window-height="712"
     id="namedview4294"
     showgrid="false"
     inkscape:zoom="1.5656378"
     inkscape:cx="236.31477"
     inkscape:cy="284.76717"
     inkscape:window-x="0"
     inkscape:window-y="0"
     inkscape:window-maximized="1"
     inkscape:current-layer="svg4292" />
  <path
     style="fill:#000000"
     d="m 67.41634,600.7679 c -5.70675,-7.00335 -12.99186,-15.93558 -16.18911,-19.84938 -3.19726,-3.91381 -6.34726,-7.79102 -7,-8.61602 -0.65275,-0.825 -5.1642,-6.38565 -10.02546,-12.357 -5.68322,-6.981 -8.65491,-11.44355 -8.32396,-12.5 0.28308,-0.90365 1.64403,-4.793 3.02434,-8.643 8.19189,-22.8491 11.95819,-33.45817 13.13529,-37 0.73115,-2.2 2.96964,-8.5 4.97443,-14 2.00478,-5.5 4.71096,-13.15 6.01373,-17 1.30277,-3.85 4.70061,-13.525 7.55075,-21.5 2.85014,-7.975 6.47454,-18.13865 8.05423,-22.58589 2.76674,-7.78914 4.28055,-17.36266 3.0178,-19.08492 -0.33438,-0.45605 -1.50796,-1.32617 -2.60796,-1.93358 -1.63353,-0.90203 -2.05418,-2.3221 -2.29569,-7.75 -0.16263,-3.65509 -0.70004,-6.64561 -1.19424,-6.64561 -0.4942,0 -2.08096,1.01707 -3.52614,2.26017 -2.88958,2.48551 -4.72329,9.44226 -5.93589,22.51966 -0.87875,9.47697 -2.68335,13.72309 -6.37999,15.01174 -6.33889,2.20975 -15.41098,-5.39252 -21.32736,-17.87199 -5.49335,-11.58718 -5.84069,-12.85245 -5.84069,-21.27629 0,-7.12081 0.40913,-9.12412 2.9033,-14.21608 3.15516,-6.44138 8.96143,-12.98578 15.16122,-17.0886 4.5512,-3.01184 4.90174,-4.48352 1.50143,-6.30332 -3.79948,-2.03341 -4.93487,-5.90319 -3.65507,-12.45754 1.82614,-9.35227 2.92223,-15.83716 3.56264,-21.07775 0.33605,-2.75 1.03381,-7.25 1.55059,-10 0.51677,-2.75 1.67675,-9.5 2.57772,-15 2.17821,-13.2969 7.04087,-23.83441 14.96747,-32.43491 7.99832,-8.67832 17.88154,-18.45665 28.3062,-28.00579 9.27741,-8.49825 9.07278,-8.11455 12.72648,-23.86288 3.15056,-13.57963 6.73159,-15.67265 25.03131,-14.63011 6.80169,0.3875 12.36671,0.51158 12.36671,0.27574 0,-0.23584 -2.59924,-3.10928 -5.77608,-6.38543 -6.89272,-7.10815 -7.81521,-9.7963 -8.73598,-25.45662 -0.7032,-11.96 -3.25012,-21.95491 -7.54154,-29.59543 -1.17672,-2.09505 -2.93519,-6.94246 -3.90772,-10.77204 -1.69647,-6.68022 -1.9349,-7.02802 -5.87385,-8.56809 -2.25809,-0.88287 -4.53785,-2.04605 -5.06613,-2.58483 -0.52829,-0.53879 -1.27258,-5.28964 -1.65398,-10.55745 l -0.69346,-9.577849 3.47729,-2.05165 c 2.72503,-1.60781 3.61373,-2.88898 4.10794,-5.92216 0.97388,-5.97709 5.15436,-18.4031 8.92371,-26.52474 5.44758,-11.73765 10.40016,-18.71646 20.22016,-28.49277 7.76591,-7.73135 10.64516,-9.8542 18.60377,-13.71639 5.17873,-2.51316 11.73496,-5.06249 14.5694,-5.66517 3.22303,-0.6853 14.83558,-0.97884 31,-0.7836 l 25.84647,0.31217 8.47189,4.28134 c 28.12292,14.21213 48.67703,41.08968 53.94558,70.54183 0.67115,3.75186 1.77505,6.41962 3.10343,7.5 1.88289,1.53136 2.03648,2.5872 1.77043,12.170589 l -0.29133,10.49377 -5.87223,1.50623 -5.87223,1.50624 -3.28083,12.85191 c -1.80446,7.06855 -3.96204,14.71855 -4.79463,17 -0.92406,2.53208 -1.68083,9.01782 -1.94252,16.64809 -0.38258,11.15496 -0.72192,13.0763 -3.15358,17.85577 -3.44079,6.76294 -10.0115,13.19437 -16.00541,15.66615 -3.04253,1.25469 -4.54095,2.44171 -4.35004,3.44603 0.27903,1.46788 2.3903,2.03142 22.27147,5.94466 14.7218,2.89771 17.08294,4.02048 20.44761,9.72318 2.04701,3.46942 2.62487,7.66194 3.4509,25.03744 0.21371,4.49527 0.75552,8.77027 1.20404,9.5 0.44851,0.72972 4.81891,6.50177 9.71201,12.82677 4.89309,6.325 11.83382,16.45 15.42384,22.5 3.59001,6.05 7.90951,13.025 9.59888,15.5 3.73143,5.46672 17.76752,23 18.41242,23 0.25437,0 2.10225,-1.27524 4.1064,-2.83386 2.00414,-1.55862 4.47646,-3.13679 5.49403,-3.50704 2.1177,-0.77054 2.03138,-2.72618 -0.82364,-18.6591 -0.93627,-5.225 -2.05358,-11.525 -2.48292,-14 -0.42933,-2.475 -1.34415,-7.69241 -2.03292,-11.59424 -1.10298,-6.24832 -1.05329,-7.51364 0.41671,-10.61145 2.01548,-4.2473 5.08135,-5.79431 11.4832,-5.79431 2.64905,0 7.01538,-0.40718 9.70295,-0.90485 2.68757,-0.49767 8.46654,-1.06017 12.84216,-1.25 l 7.95567,-0.34515 3.85024,10.5 c 2.11762,5.775 4.25271,11.24558 4.74463,12.15685 0.49192,0.91127 1.61594,5.63627 2.49783,10.5 0.88188,4.86373 2.43905,13.11815 3.46037,18.34315 1.02132,5.225 2.59632,14 3.49999,19.5 0.90367,5.5 2.06886,11.38195 2.58932,13.071 0.52045,1.68905 0.95162,4.16405 0.95815,5.5 0.007,1.33595 0.62483,4.73099 1.37401,7.54453 l 1.36215,5.11553 -4.40316,6.84346 c -2.42173,3.76391 -4.91758,7.1614 -5.54633,7.54999 -0.62875,0.38859 -5.70426,1.0174 -11.27893,1.39737 l -10.13575,0.69086 -2.77234,10.64363 c -3.55865,13.66244 -4.27273,15.47672 -7.15844,18.18771 -3.03615,2.85231 -10.5103,3.1191 -13.42727,0.47928 -1.87914,-1.7006 -2.10641,-1.62239 -6.48502,2.23182 -4.62993,4.07543 -7.87548,5.24482 -14.55659,5.24482 -2.07118,0 -5.72743,0.89012 -8.125,1.97804 -9.25031,4.19743 -20.14084,1.45476 -25.58341,-6.44293 -5.04586,-7.32204 -5.85378,-11.19498 -4.31366,-20.67864 l 1.3071,-8.04878 -2.95209,-2.95209 -2.95209,-2.95209 -1.61677,9.79825 c -0.88923,5.38903 -2.13252,15.64824 -2.76287,22.79824 -0.63034,7.15 -1.49281,13.675 -1.9166,14.5 -0.42378,0.825 -2.1551,1.63859 -3.84738,1.80797 -2.93629,0.29389 -3.05283,0.47666 -2.55066,4 0.28942,2.03062 0.92938,5.26703 1.42214,7.19203 1.3957,5.45236 1.06598,20.01774 -0.63986,28.26634 -1.47788,7.14627 -1.45188,7.83196 0.58239,15.35696 1.17114,4.33219 3.18713,11.9267 4.47997,16.8767 4.51807,17.29871 5.59291,21.00519 6.29545,21.70929 0.38924,0.39011 4.97854,0.84011 10.19843,1 l 9.49071,0.29071 1.29842,4.5 c 0.71413,2.475 1.78746,6.3 2.38518,8.5 0.59771,2.2 1.46729,5.35 1.93239,7 4.02759,14.28845 5.87915,21.7128 6.11095,24.50359 0.27122,3.26537 0.0684,3.42496 -30.05412,23.64199 l -30.32718,20.35442 -11.67282,0.0451 c -6.42005,0.0248 -24.72282,0.64728 -40.67282,1.38333 -15.95,0.73604 -29.33489,1.03337 -29.74419,0.66074 -0.62799,-0.57172 -14.08645,-52.2226 -16.82973,-64.58913 -1.98511,-8.94872 -3.69006,-13.95475 -4.25724,-12.5 -2.11326,5.42021 -5.66884,16.59254 -5.66884,17.81257 0,0.80518 2.54158,4.78222 5.64796,8.83788 8.10588,10.58293 8.13026,12.20116 0.5151,34.18722 -3.30283,9.53574 -6.23261,17.56518 -6.51063,17.8432 -0.27802,0.27801 -6.50105,0.69324 -13.82896,0.92272 -7.32791,0.22949 -19.39847,0.85063 -26.82347,1.38032 -7.425,0.5297 -20.53083,1.24472 -29.12408,1.58895 l -15.62407,0.62587 z"
     id="path4457" />
  <path
     style="fill:#ff8b1e;fill-opacity:1"
     d="M 121.3125 205.59375 C 115.80604 205.65335 114.38754 206.05241 113.375 206.96875 C 112.36891 207.87925 111.53125 209.51179 111.53125 210.625 C 111.53125 211.73821 111.13654 214.0297 110.625 215.71875 C 109.25013 220.25841 107.68731 226.3125 107.90625 226.3125 C 108.01133 226.3125 110.78156 225.31912 114.0625 224.125 C 122.57777 221.02581 134.7192 220.96817 139.59375 224 C 147.70513 229.04505 151.26264 242.6721 148.90625 259.53125 C 146.57505 276.21015 142.96075 284.46333 133.875 293.8125 C 126.8558 301.03521 122.96175 304.45246 115.03125 310.34375 C 107.86248 315.66918 107.7122 315.85396 107 320.3125 C 106.6925 322.2375 106.05022 325.3875 105.5625 327.3125 C 105.07479 329.2375 103.95791 334.4125 103.0625 338.8125 C 100.11193 353.31141 99.36588 355.4248 96.9375 356.53125 C 94.15556 357.79878 93.74335 358.78671 92.5625 367.125 L 91.625 373.6875 L 95.34375 376.9375 C 97.37929 378.73709 99.93125 380.25461 101.03125 380.3125 C 102.13125 380.3704 108.65625 382.17431 115.53125 384.3125 L 128.03125 388.21875 L 184.03125 387.78125 C 214.83125 387.541 251.34816 387.02269 265.1875 386.65625 L 290.375 386 L 290.8125 383.6875 C 291.05691 382.40892 291.00666 381.10043 290.71875 380.8125 C 290.43081 380.52458 274.5593 380.3125 255.4375 380.3125 L 220.6875 380.3125 L 220.34375 383.03125 C 219.89931 386.88188 216.80233 387.35167 216.375 383.625 L 216.03125 380.8125 L 178.375 380.53125 L 140.71875 380.28125 L 141.28125 376.125 C 141.58684 373.8467 142.58701 368.58389 143.5 364.40625 L 145.15625 356.8125 L 155.90625 356.53125 C 163.2476 356.33678 166.74557 355.86286 167 355.03125 C 167.20456 354.3626 167.63733 352.575 167.96875 351.0625 C 168.54318 348.44096 168.4055 348.30118 164.8125 348.3125 C 162.73952 348.3195 158.66729 348.95044 155.78125 349.71875 C 149.58946 351.36709 148.91244 350.77355 150.34375 344.96875 C 150.9094 342.6747 151.89656 338.20085 152.53125 335.03125 C 153.16594 331.86165 154.11603 329.52919 154.625 329.84375 C 155.90471 330.63465 155.78908 338.3416 154.4375 342.21875 C 153.82391 343.9789 153.5718 345.66555 153.875 345.96875 C 154.1782 346.27195 157.58336 345.9444 161.46875 345.25 C 168.49447 343.99444 168.53125 343.97852 168.53125 340.78125 C 168.53125 339.01308 168.8125 336.15625 169.15625 334.4375 L 169.78125 331.3125 L 164.25 331.3125 C 160.53463 331.3125 158.17629 330.77005 157.125 329.71875 C 156.26071 328.85447 155.53125 327.92886 155.53125 327.65625 C 155.53125 327.38363 158.79375 327.27552 162.78125 327.40625 L 170.03125 327.65625 L 171.1875 313.71875 C 171.81298 306.06243 172.65444 297 173.0625 293.5625 L 173.8125 287.3125 L 167.15625 287.3125 C 159.12407 287.3125 159.30819 288.15555 163.875 269.9375 C 165.53395 263.31956 166.51768 262.3343 171.65625 262.3125 C 175.26272 262.2972 175.27639 262.30631 175.90625 257.0625 C 176.25308 254.175 176.57293 248.6625 176.625 244.8125 C 176.6771 240.9625 177.23478 233.80467 177.875 228.90625 L 179.03125 220 L 187.53125 220.21875 C 192.20625 220.33956 196.32344 220.74738 196.65625 221.125 C 197.22232 221.76727 196.56908 232.94781 194.78125 253.625 C 194.36168 258.47762 194.20262 262.64012 194.4375 262.875 C 195.0489 263.4864 210.10067 263.39935 210.71875 262.78125 C 211.00224 262.49776 208.83135 253.83526 205.90625 243.53125 C 200.20536 223.44918 199.89993 221.79228 201.6875 220.6875 C 203.64623 219.47694 260.68818 220.67515 262.78125 221.96875 C 263.24953 222.25816 263.23694 223.01771 262.75 223.65625 C 262.26309 224.29478 259.9496 229.3125 257.59375 234.8125 C 252.34811 247.05908 251.38584 249.27368 248.125 256.59375 C 246.70895 259.77254 245.53125 262.81004 245.53125 263.34375 C 245.53125 263.88863 248.99095 264.3125 253.40625 264.3125 L 261.28125 264.3125 L 261.9375 257.5625 C 262.29922 253.85 262.96399 244.57617 263.4375 236.96875 C 263.91101 229.36132 264.70993 222.79104 265.1875 222.375 C 265.66508 221.95895 269.51875 221.81641 273.78125 222.0625 L 281.53125 222.53125 L 281.53125 243.40625 L 281.53125 264.3125 L 284.6875 264.3125 L 287.8125 264.3125 L 287.09375 258.0625 C 286.69537 254.625 286.08426 245.70265 285.71875 238.25 C 285.01574 223.91488 283.53051 219.3125 279.6875 219.3125 C 278.69815 219.3125 275.90423 218.69365 273.46875 217.9375 C 267.97335 216.23132 260.14964 214.43688 255.53125 213.84375 C 253.60625 213.59653 249.59072 212.92773 246.59375 212.34375 C 242.50048 211.54615 240.2612 211.57137 237.59375 212.5 L 234.03125 213.75 L 239.53125 214.4375 C 242.55625 214.80971 248.18125 215.20329 252.03125 215.3125 C 255.88125 215.42172 260.15625 215.87342 261.53125 216.34375 C 262.97307 216.83693 245.83063 217.11812 221.03125 217 C 181.13063 216.80994 177.70099 216.92555 173.34375 218.65625 C 168.72076 220.49249 168.59689 220.4979 165.34375 218.53125 C 161.79189 216.38402 153.94912 213.60927 143.53125 210.8125 C 134.29569 208.33312 133.58093 207.94461 137.28125 207.53125 C 141.70858 207.03669 156.81684 210.94285 163.65625 214.34375 C 169.13096 217.06605 169.40791 217.10771 173.65625 215.625 C 176.05939 214.78628 180.05625 213.74238 182.53125 213.3125 L 187.03125 212.53125 L 182.53125 212.40625 C 177.21739 212.23704 162.94308 209.12745 159.84375 207.46875 C 158.48782 206.74307 149.70309 206.12451 136.4375 205.8125 C 129.38515 205.64663 124.61638 205.55799 121.3125 205.59375 z M 167.6875 222.3125 C 169.23476 222.3125 169.61507 224.43585 168.65625 227.5625 C 167.30185 231.97911 165.97926 237.40559 164.03125 246.3125 C 163.12909 250.4375 161.98464 255.1625 161.5 256.8125 C 161.01536 258.4625 158.98418 266.7875 157 275.3125 C 150.81333 301.89339 150.3725 303.7337 149.46875 306.8125 C 148.98441 308.4625 147.24811 315.4375 145.59375 322.3125 C 142.82 333.83942 140.73729 342.4317 138.53125 351.3125 C 138.05308 353.2375 136.97614 357.5125 136.15625 360.8125 C 135.33635 364.1125 134.19708 368.6125 133.625 370.8125 C 133.05293 373.0125 132.57562 376.725 132.5625 379.0625 C 132.5312 384.63753 130.99083 384.50791 130.21875 378.875 C 129.84883 376.17614 130.18486 372.37965 131.09375 369.125 C 133.9314 358.96383 134.70596 355.85469 138.0625 340.8125 C 138.92159 336.9625 140.04251 332.2375 140.5625 330.3125 C 141.08249 328.3875 142.20749 323.6625 143.0625 319.8125 C 143.91751 315.9625 145.06096 311.2375 145.59375 309.3125 C 146.12653 307.3875 148.36009 298.1625 150.5625 288.8125 C 152.76492 279.4625 155.03499 270.0125 155.625 267.8125 C 157.57528 260.54032 158.49045 256.88855 160.09375 249.8125 C 160.96609 245.9625 162.0491 241.6875 162.5 240.3125 C 162.9509 238.9375 164.12826 234.325 165.125 230.0625 C 166.12174 225.8 167.2801 222.3125 167.6875 222.3125 z M 205.53125 287.3125 C 193.84543 287.3125 192.5244 287.4871 192.5 289.0625 C 192.4851 290.025 192.01787 295.0875 191.4375 300.3125 C 190.85712 305.5375 190.08597 313.75057 189.71875 318.5625 L 189.03125 327.3125 L 193.8125 327.9375 C 196.43735 328.28556 198.86367 329.00728 199.1875 329.53125 C 199.51134 330.05523 199.45044 334.28039 199.0625 338.9375 C 198.15318 349.85373 196.16442 349.83227 195.75 338.90625 L 195.46875 331.1875 L 191.75 331.5 L 188.03125 331.8125 L 188.03125 338.3125 C 188.03125 344.48695 188.15646 344.82775 190.53125 345.15625 C 193.04692 345.50423 195.53125 347.00906 195.53125 348.1875 C 195.53125 348.53662 193.50625 348.6656 191.03125 348.46875 L 186.53125 348.09375 L 186.53125 351.4375 L 186.53125 354.8125 L 202.78125 354.59375 L 219.03125 354.375 L 219.71875 347.09375 C 222.79129 314.48956 223.11966 305.35638 221.4375 299.03125 C 220.52496 295.59998 219.50876 291.575 219.15625 290.0625 L 218.5 287.3125 L 205.53125 287.3125 z M 240.125 287.40625 C 235.13376 287.41321 234.3016 287.79062 233.875 289 C 233.52727 289.98578 232.46197 292.6125 231.5 294.8125 C 226.29877 306.70752 226.48656 305.58843 223.59375 342.8125 C 223.12359 348.8625 223.08679 354.0375 223.53125 354.3125 C 223.97576 354.5875 230.80851 354.73076 238.6875 354.625 L 253 354.40625 L 253.6875 351.8125 C 254.5482 348.59422 253.0623 347.82673 247.34375 348.59375 C 243.80349 349.0686 243.45373 348.95253 244.6875 347.71875 C 245.47144 346.93482 248.13951 345.70826 250.59375 345 L 255.03125 343.71875 L 255.34375 338 L 255.625 332.3125 L 252.625 332.3125 C 249.28024 332.3125 248.15854 333.73895 247.125 339.46875 C 246.47954 343.04708 243.18913 348.31715 242.21875 347.3125 C 241.75364 346.83096 244.63725 334.65429 246.0625 331.0625 C 246.57601 329.7684 247.89053 329.3125 251.125 329.3125 C 256.65614 329.3125 256.06519 331.98842 258.1875 297.3125 L 258.78125 287.8125 L 246.65625 287.5 C 243.92767 287.43425 241.78875 287.40393 240.125 287.40625 z M 278.78125 289.3125 L 278.1875 293.5625 C 277.87421 295.9 277.3511 301.8625 277.03125 306.8125 C 276.23002 319.21236 275.48162 326.60029 274.90625 327.53125 C 274.63939 327.96304 277.5723 328.3125 281.4375 328.3125 C 287.27344 328.3125 288.38424 328.56686 287.90625 329.8125 C 287.47766 330.92939 285.69769 331.3125 280.9375 331.3125 L 274.53125 331.3125 L 274.53125 335.5625 C 274.52325 337.9 274.24867 340.74703 273.9375 341.90625 C 273.45 343.7224 273.91899 344.10697 277.21875 344.59375 C 279.32492 344.90446 282.52034 345.4815 284.34375 345.875 L 287.65625 346.59375 L 286.96875 340.4375 C 286.45227 335.87249 286.62994 333.90015 287.65625 332.65625 C 288.85856 331.19904 289.09511 331.97229 289.53125 338.875 C 290.20545 349.54545 289.92889 350.65533 286.65625 349.78125 C 285.22081 349.39786 281.44375 348.8586 278.28125 348.59375 L 272.53125 348.125 L 272.53125 351.5625 C 272.53125 353.44469 272.73276 355.14584 272.96875 355.375 C 273.20474 355.60417 277.44012 355.81816 282.375 355.84375 L 291.34375 355.90625 L 291.9375 348.84375 C 292.2578 344.96816 292.36911 339.7875 292.1875 337.3125 C 292.00589 334.8375 291.28956 323.5875 290.625 312.3125 C 289.96045 301.0375 289.25899 291.25 289.03125 290.5625 C 288.77471 289.78808 286.73426 289.3125 283.6875 289.3125 L 278.78125 289.3125 z M 102.78125 384.4375 C 101.73063 384.45964 102.03913 385.17602 102.9375 386.5625 C 103.73934 387.8 104.9488 390.9121 105.59375 393.5 C 106.45406 396.95212 108.13401 399.61543 111.9375 403.5 C 114.78881 406.4121 117.79166 409.81149 118.59375 411.0625 C 119.55017 412.55422 122.26836 414.01505 126.53125 415.28125 C 132.59661 417.08284 135.63909 417.17446 172.03125 416.75 C 193.48125 416.49981 225.20625 416.14444 242.53125 415.96875 C 259.85625 415.79305 275.4508 415.30184 277.15625 414.875 C 280.25579 414.09923 280.25325 414.11941 281.5 403.96875 C 283.06715 391.2094 283.01117 391.29963 285.75 391.28125 C 287.00476 391.27325 288.70625 390.81907 289.53125 390.28125 C 290.52093 389.63609 284.56717 389.50006 272.03125 389.875 C 261.58125 390.18754 233.45625 390.65533 209.53125 390.90625 C 185.60625 391.15716 163.55625 391.6576 160.53125 392.03125 C 157.50625 392.4049 154.35625 392.62307 153.53125 392.5 C 152.70625 392.37693 147.53125 392.23548 142.03125 392.1875 C 130.80665 392.0896 130.23652 391.96974 110.8125 386.375 C 106.26574 385.06539 103.83187 384.41536 102.78125 384.4375 z M 199.84375 392.21875 L 199.25 403.375 C 198.92667 409.50404 198.51651 414.62646 198.34375 414.78125 C 197.79885 415.26946 185.15203 415.82537 182.65625 415.46875 C 180.27592 415.12863 180.26341 415.10614 181 405.96875 C 181.40624 400.92937 181.82471 395.9125 181.90625 394.8125 C 182.04081 392.99725 182.85784 392.76425 190.9375 392.5 L 199.84375 392.21875 z M 238.09375 392.3125 L 247.6875 392.3125 L 247.15625 397.5625 C 246.85886 400.45 246.32564 405.35521 246 408.46875 L 245.40625 414.125 L 240.21875 414.46875 C 237.3647 414.65521 233.13324 414.66832 230.8125 414.5 L 226.59375 414.1875 L 227.15625 404.5 C 227.4607 399.16831 227.88222 394.25 228.09375 393.5625 C 228.36652 392.67597 231.28286 392.3125 238.09375 392.3125 z M 265.90625 392.3125 L 275.75 392.3125 L 275.1875 395.5625 C 274.86392 397.35 274.52497 402.3 274.4375 406.5625 L 274.28125 414.3125 L 263.34375 414.3125 L 252.4375 414.3125 L 253.15625 404.0625 C 253.53679 398.425 254.33037 393.46658 254.9375 393.0625 C 255.54464 392.65842 260.48254 392.32092 265.90625 392.3125 z M 173.59375 393 L 172.96875 403.90625 C 172.6145 409.90342 172.12103 415.15 171.875 415.5625 C 171.62897 415.975 166.74133 416.3125 161.03125 416.3125 C 155.32117 416.3125 150.46353 415.975 150.21875 415.5625 C 149.73006 414.73897 151.24464 395.28662 151.84375 394.6875 C 152.04824 394.48302 157.02136 394.01632 162.90625 393.65625 L 173.59375 393 z M 140.1875 393.3125 L 143.59375 393.3125 L 143.3125 404.5625 L 143.03125 415.8125 L 138.65625 416.125 L 134.25 416.4375 L 134.8125 406.625 C 135.52449 394.17241 135.8711 393.3125 140.1875 393.3125 z M 213.71875 395.3125 C 217.30676 395.3125 217.52017 397.98602 214.03125 399.3125 C 212.64949 399.83785 211.00653 401.39521 210.375 402.78125 C 208.78389 406.27337 206.53125 406.01919 206.53125 402.34375 C 206.53125 398.64215 209.93848 395.3125 213.71875 395.3125 z M 219.25 402.75 C 219.3588 402.74479 219.462 402.7697 219.53125 402.8125 C 221.27212 403.88842 220.6402 406.90858 218.09375 409.65625 C 215.50241 412.45235 213.00872 412.97085 210.53125 411.21875 C 209.19792 410.2758 209.19792 410.07477 210.53125 409.5625 C 211.35625 409.24554 213.49774 407.46984 215.28125 405.59375 C 216.84182 403.95217 218.48842 402.78647 219.25 402.75 z M 106.21875 403.3125 C 105.9947 403.3125 105.49239 405.225 105.125 407.5625 C 103.61575 417.16513 101.16037 422.70793 96 428.0625 C 93.21722 430.95 90.26262 433.2918 89.46875 433.28125 C 88.67488 433.27065 86.25649 431.69569 84.0625 429.78125 C 79.40719 425.71908 77.97415 425.47093 77.28125 428.5625 C 77.00389 429.8 75.17415 435.3125 73.21875 440.8125 C 71.26335 446.3125 67.33848 457.3375 64.5 465.3125 C 61.66151 473.2875 57.18805 485.8875 54.5625 493.3125 C 51.93695 500.7375 48.59645 510.1875 47.125 514.3125 C 45.65355 518.4375 43.09198 525.8625 41.4375 530.8125 C 39.78301 535.7625 38.02902 540.7125 37.5625 541.8125 C 35.2937 547.16197 35.34392 547.28403 46.28125 560.65625 C 52.20032 567.89303 61.56686 579.3835 67.0625 586.21875 C 77.50402 599.20549 83.38192 605.52738 84.4375 604.875 C 84.78055 604.66298 98.08379 603.76368 114.03125 602.875 C 129.97871 601.98632 146.19091 601.15602 150.03125 601.03125 L 157 600.8125 L 161.875 586.8125 C 164.54508 579.1125 166.78937 571.89148 166.875 570.78125 C 166.9619 569.65398 164.18059 565.052 160.5625 560.375 L 154.0625 552 L 136.5625 552.6875 C 126.92986 553.05827 111.97986 553.64425 103.34375 553.96875 C 87.77993 554.55356 81.41391 554.01807 83.15625 552.3125 C 83.6483 551.83083 95.95625 550.90151 110.53125 550.25 C 125.10625 549.59849 140.79487 548.78638 145.375 548.4375 L 153.6875 547.8125 L 156.625 539.3125 C 158.22865 534.6375 159.52753 530.48754 159.53125 530.09375 C 159.53525 529.69996 144.6373 529.65434 126.4375 530 C 100.26427 530.4971 93.18191 530.37722 92.5625 529.375 C 91.86023 528.2387 92.26142 526.31462 94.53125 519.8125 C 94.91525 518.7125 96.07875 515.1125 97.125 511.8125 L 99.03125 505.8125 L 133.21875 506.15625 L 167.4375 506.53125 L 168.96875 502.8125 C 169.83796 500.7322 171.0482 499.29731 171.75 499.53125 C 172.85426 499.89933 175.53125 496.25614 175.53125 494.375 C 175.53125 493.98302 159.89375 493.7878 140.78125 493.96875 C 108.86641 494.27092 106.347 494.17415 109.96875 492.78125 C 113.13382 491.56398 121.52304 491.14797 152.46875 490.65625 C 187.83933 490.09422 191.30573 489.88742 194.1875 488.15625 C 200.52733 484.3477 205.97698 475.83725 210.75 462.3125 C 212.99832 455.94169 213.46506 437.67201 211.53125 431.8125 C 210.44264 428.51398 210.78317 426.3125 212.375 426.3125 C 212.77465 426.3125 213.95382 429.97321 214.96875 434.46875 C 216.31509 440.43222 216.6472 444.69114 216.21875 450.21875 C 215.67674 457.21137 213.86969 464.28655 212.21875 465.9375 C 211.84181 466.31443 211.53125 467.23842 211.53125 467.96875 C 211.53125 469.05092 216.20323 469.19522 236.78125 468.78125 C 250.66875 468.50187 265.569 468.03411 269.875 467.75 C 276.99394 467.2803 277.65323 467.41272 277.34375 469.03125 C 276.96408 471.01684 279.73257 470.81396 235 472.09375 C 213.55037 472.70741 210.09214 473.02358 210.40625 474.3125 C 210.60731 475.1375 211.63891 479.1875 212.6875 483.3125 C 213.73608 487.4375 215.20137 493.5125 215.96875 496.8125 C 218.54987 507.91216 224.7047 531.78131 225.1875 532.5625 C 225.45062 532.98825 226.90111 532.51236 228.375 531.5 C 232.32959 528.78375 242.70588 523.13483 243.0625 523.5 C 243.79049 524.24546 247.43411 536.41525 249 543.3125 C 249.93651 547.4375 251.0718 551.9375 251.53125 553.3125 C 253.32477 558.67992 253.53511 562.3125 252.0625 562.3125 C 250.22444 562.3125 249.69851 561.35058 248.59375 556.125 C 246.18825 544.74683 242.32958 529.71958 241.625 529 C 241.19232 528.55812 238.40562 529.5827 235.4375 531.28125 C 226.90446 536.16442 223.61505 537.70879 223 537.09375 C 222.43974 536.53349 219.77586 526.71929 216.96875 514.8125 C 216.19075 511.5125 215.14591 507.2375 214.625 505.3125 C 213.08473 499.62061 208.58201 480.876 208.5625 480.0625 C 208.519 478.24721 206.52441 479.57556 204.5625 482.75 C 203.38852 484.64953 200.27594 487.79572 197.65625 489.71875 C 193.47464 492.78833 192.06023 493.23672 186.03125 493.5 L 179.1875 493.8125 L 176.28125 499.125 L 173.34375 504.46875 L 175.0625 511.625 C 175.99522 515.56951 177.11384 520.3875 177.5625 522.3125 C 178.01116 524.2375 182.29662 541.1125 187.0625 559.8125 C 191.82838 578.5125 195.95705 594.8191 196.25 596.0625 C 196.92703 598.93609 199.72696 599.60217 206.03125 598.40625 C 208.77952 597.88491 220.92952 597.64583 233.03125 597.875 C 246.74989 598.1348 257.85511 597.87237 262.53125 597.15625 C 269.88896 596.02954 270.47742 595.69724 293.28125 580.46875 C 306.0659 571.93111 316.38012 564.78636 316.1875 564.59375 C 315.99489 564.40114 308.00454 564.72712 298.4375 565.28125 C 288.87045 565.83539 275.50517 566.27327 268.75 566.28125 C 260.66771 566.29125 255.36754 566.76116 253.25 567.65625 C 251.48017 568.40436 243.28125 573.27338 235.03125 578.46875 C 208.07403 595.44482 204.53407 597.45172 201.8125 597.125 C 199.75617 596.87814 204.19406 593.70615 224.03125 581.3125 C 237.67631 572.7875 250.58796 565.27361 252.6875 564.625 C 254.81015 563.96925 266.58598 563.14273 279.25 562.78125 C 301.358 562.15022 322.39443 560.76182 323.28125 559.875 C 323.52089 559.63536 323.23108 557.95367 322.625 556.125 C 322.0189 554.29632 320.38298 548.5375 319 543.3125 C 317.61702 538.0875 315.95485 531.83298 315.28125 529.4375 L 314.03125 525.09375 L 284.03125 525.8125 C 267.53094 526.21465 252.47374 526.61917 250.5625 526.6875 C 247.99036 526.7794 247.00783 526.35783 246.75 525.0625 C 246.43824 523.49626 247.37443 523.31578 255.71875 523.3125 C 260.84657 523.3105 271.37489 523.01081 279.125 522.65625 L 293.21875 522 L 291.125 514.03125 L 289.03125 506.0625 L 276.03125 506.9375 C 268.88125 507.41677 253.84581 507.8125 242.59375 507.8125 L 222.125 507.8125 L 221.40625 504.8125 C 221.00642 503.1625 220.15694 500.0125 219.53125 497.8125 C 217.31513 490.02034 216.28406 484.24719 216.96875 483.5625 C 217.35025 483.18101 228.53676 482.54107 241.84375 482.15625 C 255.15074 481.77142 269.73581 481.14772 274.25 480.75 C 282.14336 480.05456 282.40628 479.92284 281.34375 477.9375 C 279.98541 475.39941 280.08594 463.0646 281.5 458.3125 C 282.78558 453.99215 282.86064 439.64569 281.625 434 C 281.12029 431.69395 280.15188 427.225 279.46875 424.0625 C 278.50382 419.59546 277.80467 418.3125 276.375 418.3125 C 274.44763 418.3125 273.87724 419.78571 275.4375 420.75 C 278.5459 422.6711 279.46066 452.47645 276.625 459.71875 L 275.46875 462.625 L 255.25 461.9375 C 244.13114 461.56699 232.25842 460.99098 228.875 460.65625 L 222.75 460.03125 L 222.3125 443.4375 C 221.97982 430.47799 221.51494 425.93755 220.15625 422.90625 L 218.40625 419.03125 L 211.71875 419.65625 C 208.04534 420.00323 202.90113 420.27734 200.28125 420.28125 L 195.5 420.3125 L 196.9375 423.71875 C 197.72114 425.59426 199.1429 432.16909 200.09375 438.34375 C 201.49396 447.43641 201.61097 450.49932 200.6875 454.5 C 200.06039 457.21691 199.53125 460.34122 199.53125 461.4375 C 199.53125 468.00922 187.93021 487.3125 183.96875 487.3125 C 181.91851 487.3125 182.16888 486.57807 185.5625 483 C 189.38167 478.97325 194.08212 469.53994 196.03125 462 C 198.54948 452.25852 197.61234 434.24327 193.9375 422.0625 C 193.44971 420.44564 191.06703 420.29125 162.71875 420.28125 C 138.4164 420.27225 131.01786 419.96217 127.125 418.78125 C 124.42182 417.96122 122.00835 417.5229 121.75 417.78125 C 121.49165 418.03959 121.77466 419.50111 122.375 421.03125 C 126.65822 431.94884 126.45978 458.9888 122 472.125 C 118.82491 481.4772 112.59006 488.86962 104.15625 493.34375 C 100.32617 495.3756 99.84325 496.12392 97.21875 504.15625 C 95.66736 508.90432 94.00151 513.7125 93.53125 514.8125 C 93.06098 515.9125 91.70907 519.7375 90.5 523.3125 C 89.29094 526.8875 86.5575 534.7625 84.4375 540.8125 C 82.31751 546.8625 80.57275 552.33827 80.5625 553 C 80.5522 553.66173 82.51166 556.36173 84.90625 559 C 87.30085 561.63827 90.61114 565.37323 92.28125 567.28125 L 95.3125 570.75 L 111.1875 570.5 C 119.91029 570.3694 133.78125 569.78005 142.03125 569.1875 C 158.42185 568.01024 164.69082 568.20088 165.25 569.90625 C 165.81022 571.61479 158.70347 572.25783 126.625 573.375 C 110.44163 573.93861 96.80055 574.63587 96.3125 574.9375 C 95.82445 575.23913 95.04447 576.47218 94.59375 577.65625 C 94.14303 578.84032 91.64582 584.89386 89.03125 591.125 C 84.7654 601.29153 84.1222 602.30971 82.75 600.9375 C 81.68702 599.87453 81.52605 598.99756 82.21875 598.09375 C 82.76683 597.37864 83.80222 595.2375 84.53125 593.3125 C 85.26028 591.3875 86.63757 588.0125 87.59375 585.8125 C 90.87489 578.26314 92.53125 574.06515 92.53125 573.34375 C 92.53125 572.68924 87.24805 566.30745 79.3125 557.4375 L 76.3125 554.09375 L 77.84375 549.4375 C 78.69792 546.88195 81.72159 538.2875 84.53125 530.3125 C 87.34091 522.3375 90.52969 513.1125 91.625 509.8125 C 92.72032 506.5125 94.00731 502.9125 94.5 501.8125 C 94.9927 500.7125 95.90396 498.20666 96.5 496.25 C 97.3421 493.48558 98.57443 492.2107 102.03125 490.53125 C 112.77531 485.31139 118.50497 476.51557 120.84375 461.75 C 124.09786 441.20554 121.8355 423.5851 114.3125 411.15625 C 111.96684 407.28095 107.87363 403.3125 106.21875 403.3125 z M 108.78125 408.4375 C 108.94308 408.40015 109.06642 408.76525 109.25 409.53125 C 109.6393 411.15561 102.58648 433.73615 100.5 437.53125 C 99.97494 438.48629 99.53125 439.97257 99.53125 440.8125 C 99.53125 441.65243 99.12624 443.10746 98.625 444.0625 C 98.12376 445.01754 96.97898 448.0625 96.0625 450.8125 C 95.14602 453.5625 93.99582 456.7125 93.53125 457.8125 C 93.06668 458.9125 91.93422 462.0625 91 464.8125 C 89.44248 469.39728 87.2884 475.46491 82.5 488.8125 C 81.51345 491.5625 79.54672 497.075 78.125 501.0625 C 76.70328 505.05 74.40625 511.4625 73.03125 515.3125 C 71.65625 519.1625 69.38785 525.575 67.96875 529.5625 C 66.54965 533.55 65.01919 537.7125 64.5625 538.8125 C 61.46677 546.26882 55.53125 562.74139 55.53125 563.90625 C 55.53125 565.44522 53.98502 565.80972 53.15625 564.46875 C 52.8717 564.00833 53.89713 560.07083 55.4375 555.71875 C 56.97786 551.36667 59.68675 543.5375 61.46875 538.3125 C 63.25075 533.0875 65.06924 527.9125 65.53125 526.8125 C 65.99327 525.7125 67.13661 522.5625 68.0625 519.8125 C 68.98839 517.0625 70.11477 513.9125 70.5625 512.8125 C 71.42244 510.69973 76.12071 497.54787 77.53125 493.3125 C 77.98918 491.9375 79.54771 487.55 80.96875 483.5625 C 82.38978 479.575 84.7059 473.05 86.125 469.0625 C 87.5441 465.075 89.05228 460.9125 89.5 459.8125 C 89.94773 458.7125 91.07411 455.5625 92 452.8125 C 92.92589 450.0625 94.11883 446.9125 94.625 445.8125 C 95.57703 443.74359 100.96667 429.0936 102.71875 423.8125 C 103.26616 422.1625 104.12034 419.8 104.625 418.5625 C 106.61512 413.68246 107.37843 411.73171 108.09375 409.8125 C 108.4234 408.92804 108.61942 408.47485 108.78125 408.4375 z M 300.28125 569.125 C 302.16129 569.11093 303.68572 569.12591 304.5 569.1875 C 306.91614 569.37026 303.39581 572.14652 285.40625 584.1875 C 274.00947 591.81572 267.90859 595.3125 265.96875 595.3125 C 262.92532 595.3125 263.46269 594.11958 267.46875 591.9375 C 272.67609 589.1011 295.45377 573.71093 295.5 573 C 295.5284 572.56257 294.06875 572.44387 292.28125 572.71875 C 290.49375 572.99364 280.55848 573.49988 270.1875 573.84375 L 251.3125 574.46875 L 236.75 584 C 220.24801 594.80798 213.49384 598.19097 213.5625 595.5625 C 213.5733 595.15 217.51078 592.34481 222.3125 589.34375 C 227.11423 586.34269 235.60118 580.92364 241.1875 577.28125 L 251.34375 570.65625 L 268.15625 570.40625 C 277.39984 570.2721 285.24727 569.99539 285.59375 569.78125 C 286.03488 569.50862 294.64114 569.16721 300.28125 569.125 z "
     id="path4455" />
  <path
     style="fill:#b7b2ae;fill-opacity:1"
     d="M 276.6875 483.84375 C 261.2366 483.83108 221.22705 485.22694 220.4375 486.03125 C 219.77657 486.70454 220.36603 490.1183 223.25 502.3125 C 223.57519 503.6875 224.33197 505.17966 224.9375 505.625 C 225.54303 506.07034 232.55625 506.15644 240.53125 505.84375 C 248.50625 505.53106 262.5872 505.00283 271.8125 504.65625 C 286.59449 504.10092 288.52049 503.82603 288.09375 502.40625 C 287.82742 501.52018 286.64608 497.2125 285.46875 492.8125 C 284.29143 488.4125 283.04416 484.475 282.6875 484.09375 C 282.52381 483.91877 280.25309 483.84667 276.6875 483.84375 z M 146.1875 508.5 C 142.21309 508.49572 137.85313 508.49502 133.28125 508.53125 L 100.03125 508.8125 L 99.71875 511.3125 C 99.53468 512.6875 98.97218 514.2275 98.46875 514.75 C 97.96533 515.2725 97.53125 516.74858 97.53125 518.03125 C 97.53125 519.31391 96.90319 521.88752 96.125 523.75 C 95.3468 525.61247 95.0093 527.45852 95.375 527.84375 C 95.74069 528.22898 102.55625 528.27401 110.53125 527.9375 C 118.50625 527.60101 133.20473 527.01678 143.1875 526.65625 L 161.34375 526 L 163.9375 517.84375 C 165.36723 513.3554 166.53125 509.35616 166.53125 508.96875 C 166.53125 508.67819 158.11074 508.51283 146.1875 508.5 z "
     id="path4449" />
  <path
     style="fill:#ffcc00"
     d="m 90.01334,416.8025 c 2.49743,-7.97328 2.65598,-20.83459 0.30977,-25.12966 -1.55153,-2.8403 -8.47128,-8.01509 -9.43248,-7.05388 -0.21876,0.21875 -0.42885,8.8493 -0.46687,19.17899 l -0.0691,18.78127 2.80248,2.23462 2.80248,2.23462 1.0872,-2.12298 c 0.59796,-1.16764 1.93291,-4.82298 2.96656,-8.12298 z"
     id="path4431" />
  <g
     id="g4479">
    <g
       id="g4484">
      <path
         style="fill:#ffcc00"
         d="m 94.73135,425.20532 c 4.08,-5.04097 7.03225,-14.1761 7.56963,-23.42264 0.39673,-6.82658 0.13449,-8.72524 -1.76253,-12.76099 -2.34598,-4.99085 -11.0634,-13.66801 -13.85618,-13.79219 -0.90302,-0.0402 -4.04837,-0.41513 -6.98968,-0.83327 -14.61028,-2.07706 -24.32797,3.6101 -32.30531,18.90627 -2.05558,3.94149 -2.34033,5.84854 -2.29422,15.36539 0.0501,10.3376 -0.0291,10.76438 -1.63103,8.78612 -5.84801,-7.22197 -1.55575,-25.67373 8.59705,-36.95744 7.45297,-8.28315 16.87089,-11.48157 27.98134,-9.50274 2.75,0.48978 5.71459,0.74065 6.58797,0.55747 1.50407,-0.31544 3.91203,-7.8341 3.91203,-12.21496 0,-4.31691 -20.60701,-9.81518 -30.06435,-8.02164 -6.70356,1.27131 -6.93565,1.46908 -6.93565,5.91017 l 0,3.80434 6.25,1.25812 c 3.4375,0.69197 9.625,2.1553 13.75,3.25184 4.125,1.09655 8.7375,2.21796 10.25,2.49203 1.5125,0.27406 2.75,0.89722 2.75,1.3848 0,1.17367 0.27808,1.19891 -13.5,-1.22559 -21.81502,-3.83873 -23.03479,-3.72669 -31.28385,2.87376 -12.84825,10.28047 -13.6335,25.58394 -2.24428,43.73833 2.89685,4.61757 3.86524,5.46357 6.27813,5.48469 1.47793,0.0129 1.75546,-0.95637 1.78513,-6.23469 0.12537,-22.30589 9.45531,-33.91667 27.25402,-33.91667 10.05886,0 18.70005,6.98072 20.72692,16.74407 1.24245,5.98484 0.13969,14.31201 -3.03561,22.9226 -3.02787,8.21079 -3.34926,9.7896 -1.89402,9.30452 0.71297,-0.23766 2.55999,-1.99342 4.10449,-3.9017 z"
         id="path4433" />
      <path
         id="path4413"
         d="M 344.84375 337.78125 C 344.40702 337.78247 343.88773 337.8308 343.28125 337.9375 C 339.27899 338.64166 333.99635 340.94934 331.34375 343.15625 C 327.95334 345.977 323.53125 353.02529 323.53125 355.625 C 323.53125 359.0745 326.69226 364.60673 333.53125 373.1875 C 339.25156 380.36468 341.07673 383.85279 339.625 384.75 C 339.22682 384.99609 338.25644 384.26991 337.46875 383.125 C 336.68107 381.98009 333.91732 378.49438 331.3125 375.40625 C 328.70768 372.31812 325.55673 367.9 324.3125 365.5625 C 323.06826 363.225 321.75727 361.3125 321.40625 361.3125 C 321.05523 361.3125 320.51968 362.55 320.21875 364.0625 C 319.91781 365.575 319.23342 368.8375 318.6875 371.3125 C 314.25408 391.41201 313.99555 397.03145 317.3125 402.09375 C 320.50161 406.96094 327.92347 408.6941 333.375 405.875 C 334.87964 405.09693 336.6017 403.40943 337.21875 402.125 C 338.64082 399.1649 340.57914 391.43275 340.53125 388.8125 C 340.51115 387.7125 340.74913 385.38028 341.09375 383.65625 C 341.71838 380.5315 341.0546 378.90151 334.71875 368.28125 C 333.56358 366.34493 331.92902 362.83616 331.09375 360.46875 C 329.78811 356.76816 329.75866 355.69637 330.9375 352.875 C 332.66917 348.73053 336.8187 344.84895 342.28125 342.28125 C 346.84858 340.13435 347.90088 337.77271 344.84375 337.78125 z M 327.1875 341.84375 C 326.85299 341.8041 326.20218 342.01615 325.28125 342.53125 C 317.7665 346.73441 314.84776 352.99711 315.40625 363.5625 C 315.62232 367.6499 316.21706 366.94868 318 360.5625 C 320.28887 352.36415 322.43015 347.74854 325.15625 345.1875 C 327.2198 343.24891 327.92342 341.93098 327.1875 341.84375 z M 380 372.53125 C 379.28806 372.74069 375.8754 377.25514 368.5 387.65625 L 365.0625 392.5 L 368.3125 395.40625 C 370.10145 397.00468 372.01113 398.3125 372.53125 398.3125 C 373.05138 398.3125 373.98007 396.4 374.59375 394.0625 C 375.20743 391.725 376.76619 386.00912 378.09375 381.375 C 379.42132 376.74088 380.34612 372.78362 380.125 372.5625 C 380.10129 372.53879 380.04746 372.51729 380 372.53125 z "
         style="fill:#ffcc00" />
    </g>
  </g>
  <g
     id="g4488">
    <path
       sodipodi:nodetypes="cssccsssscsccsssssssccscssscssssscssscccsssc"
       inkscape:connector-curvature="0"
       id="path4445"
       d="m 261.59375,418.34375 c -3.66619,-10e-4 -8.60826,0.0941 -15.25,0.28125 -12.71384,0.35823 -23.26842,0.79967 -23.4375,0.96875 -0.16908,0.16908 0.0672,1.63176 0.5,3.25 0.11035,10.53689 5.1239,21.58995 2.53125,32.125 -0.75819,2.82693 0.33692,2.98264 26.75,3.1875 20.60067,0.15979 20.63031,0.15268 21.28125,-2.09375 0.35858,-1.2375 0.91904,-6.34698 1.25,-11.34375 0.66474,-10.03615 -1.55891,-23.24065 -4.28125,-25.5 -0.71504,-0.59343 -3.23344,-0.87312 -9.34375,-0.875 z m -26.6875,2.96875 9.53125,0 1.15625,3.75 c 0.62397,2.0625 1.3587,7.2375 1.65625,11.5 0.58568,8.3901 0.14722,9.00617 -4.25,6.125 -2.2744,-1.49024 -2.40807,-2.02637 -1.8125,-7.09375 0.6098,-5.18845 0.49362,-5.60039 -2.25,-7.84375 -3.7992,-3.10649 -4.90958,-3.02488 -6.34375,0.4375 -1.25394,3.0273 -0.50803,10.125 1.0625,10.125 1.86653,0 0.77461,2.83503 -1.71875,4.46875 -2.74584,1.79914 -3.89503,1.32591 -4.6875,-1.96875 -1.04997,-4.6234 -1.79012,-12.70333 -2.46875,-17.28125 -0.32419,-2.17325 1.07524,-2.21875 10.125,-2.21875 z m 21.28125,1 c 1.0289,-0.0167 2.16311,0 3.4375,0 8.4211,0 10.97122,0.30025 10.65625,1.25 -0.45316,1.36642 -19.75644,2.36857 -21.03125,1.09375 -1.65549,-1.65548 -0.26483,-2.22713 6.9375,-2.34375 z m 4.84375,5 c 8.66667,0 10.5,0.2619 10.5,1.5 0,1.2381 -1.83333,1.5 -10.5,1.5 -8.66667,0 -10.5,-0.2619 -10.5,-1.5 0,-1.2381 1.83333,-1.5 10.5,-1.5 z m -1.84375,7 c 1.0289,-0.0167 2.16311,0 3.4375,0 8.4211,0 10.97122,0.30025 10.65625,1.25 -0.45316,1.36642 -19.75644,2.36857 -21.03125,1.09375 -1.65549,-1.65548 -0.26483,-2.22713 6.9375,-2.34375 z m 6.71875,16.5 c 3.91927,-0.0321 6.39727,0.006 6.5,0.0937 0.20544,0.17633 0.124,0.9695 -0.1875,1.78125 -0.82077,2.1389 -42.6875,2.41495 -42.6875,0.28125 0,-1.13012 3.99843,-1.5024 21.25,-1.90625 5.84375,-0.1368 11.20573,-0.21795 15.125,-0.25 z"
       style="fill:#4d4d4d" />
    <path
       id="path4411"
       d="M 389.90625 266.8125 L 383.46875 266.875 C 374.99487 266.98495 362.3847 268.39314 362.75 269.1875 C 362.90894 269.53313 365.15405 274.13802 367.75 279.40625 C 371.3192 286.6496 372.8629 291.29043 374.0625 298.40625 C 374.93499 303.58171 376.0761 310.2875 376.59375 313.3125 C 377.1114 316.3375 377.95624 321.5125 378.46875 324.8125 C 378.98126 328.1125 380.15458 335.3125 381.0625 340.8125 C 381.97042 346.3125 382.94507 352.97106 383.25 355.625 L 383.8125 360.46875 L 388.4375 359.90625 C 401.08714 358.4424 408.53125 358.18718 408.53125 359.1875 C 408.53125 361.36325 404.37154 362.3125 394.75 362.3125 C 386.21739 362.3125 384.45137 362.59424 382.1875 364.375 C 380.29411 365.86434 379.53125 366.04883 379.53125 365.0625 C 379.53125 364.30758 379.95415 363.2725 380.46875 362.75 C 381.45332 361.75032 380.72546 356.27718 376.0625 329.8125 C 373.13182 313.17941 372.09344 307.05215 370.5625 297.03125 C 369.99273 293.30179 368.36335 287.45179 366.9375 284.03125 C 364.16312 277.37563 361.75411 273.92936 362.9375 278.3125 C 363.30873 279.6875 363.83919 282.3875 364.125 284.3125 C 364.41082 286.2375 365.05722 289.6125 365.53125 291.8125 C 366.00527 294.0125 367.13023 300.5375 368.03125 306.3125 C 368.93226 312.0875 370.0606 318.1625 370.5625 319.8125 C 371.49617 322.88195 369.85696 329.79872 367.875 331.15625 C 367.35474 331.51259 366.14715 333.5 365.1875 335.5625 C 364.22785 337.625 363.04086 339.3125 362.5625 339.3125 C 360.68406 339.3125 360.95486 336.61723 363.1875 333.0625 C 365.31534 329.67463 366.12742 327.3125 365.15625 327.3125 C 364.95116 327.3125 362.75507 328.20439 360.25 329.3125 C 355.71457 331.31874 351.38911 336.49891 351.15625 340.21875 C 351.09635 341.17498 349.76502 343.08174 348.1875 344.4375 C 345.61053 346.65221 345.27311 347.65032 344.875 354.34375 C 344.31622 363.73862 345.94239 368.68183 350.96875 372.75 C 354.32498 375.46642 355.45999 375.8125 361.5 375.8125 C 367.9603 375.8125 368.2098 375.901 367.15625 377.8125 C 366.54996 378.9125 366.01491 379.89342 366 380 C 365.9851 380.10658 364.18508 379.80505 362 379.34375 C 359.81491 378.88245 356.3904 378.22386 354.375 377.875 C 346.99577 376.59765 342.67277 369.69918 341.1875 356.8125 C 340.99713 355.16073 340.78771 356.05956 340.71875 358.8125 C 340.56977 364.76032 343.68721 374.69631 346.8125 378.25 C 349.53017 379.53577 349.67364 381.31473 346.78125 378.875 C 344.87332 377.26569 344.53125 377.22926 344.53125 378.5625 C 344.53125 381.03921 352.43005 383.56095 358.9375 383.15625 C 364.76416 382.79388 365.55683 383.21645 363.03125 385.3125 C 362.53115 385.72755 361.72143 386.86713 361.125 387.84375 C 360.41797 386.74682 358.15472 386.3125 354.1875 386.3125 C 351.08563 386.3125 348.53125 385.8625 348.53125 385.3125 C 348.53125 383.4749 345.77051 384.2908 345.25 386.28125 C 344.47443 389.24702 346.89882 390.5115 353.09375 390.4375 C 358.76271 390.3698 359.82811 391.4502 356.28125 393.6875 C 354.69881 394.68568 350.25673 393.93664 345.25 391.8125 C 343.70232 391.15588 343.5272 391.43018 344.09375 393.6875 C 344.45631 395.13206 344.32984 396.3125 343.8125 396.3125 C 343.29515 396.3125 342.4033 397.8875 341.8125 399.8125 L 340.71875 403.3125 L 344.59375 403.3125 C 346.71639 403.3125 349.57844 402.78972 350.96875 402.15625 C 352.35905 401.52279 353.71862 400.28529 354 399.40625 C 354.28138 398.52722 356.24829 395.94431 358.34375 393.65625 C 362.35914 387.16411 368.18417 382.26675 372.875 376.125 C 375.53419 372.59941 375.60169 372.23987 374.5 367.125 C 373.86886 364.19476 373.12317 359.93118 372.84375 357.625 C 372.4406 354.29771 371.91977 353.36857 370.21875 353.125 C 369.00528 352.95124 367.921 351.94467 367.71875 350.8125 C 367.42979 349.19497 367.60722 349.05154 368.65625 350.0625 C 369.36963 350.75 370.97139 351.3125 372.25 351.3125 C 374.69612 351.3125 376.52053 354.42674 376.53125 358.625 C 376.53425 359.82669 377.03669 362.53754 377.625 364.65625 C 378.59341 368.14388 378.95336 368.46462 381.375 367.9375 C 382.84613 367.61727 388.67643 366.88744 394.34375 366.3125 C 405.59269 365.1713 408.03844 364.17371 409.40625 360.25 C 410.26802 357.77792 410.02057 355.83025 406.4375 336.3125 C 405.88217 333.2875 404.75907 326.9875 403.9375 322.3125 C 403.11592 317.6375 402.06065 311.7875 401.59375 309.3125 C 401.12686 306.8375 400.03791 300.88377 399.15625 296.09375 C 397.51485 287.17614 396.35444 283.30697 392.25 272.8125 L 389.90625 266.8125 z M 376.6875 268.875 C 377.34761 268.74039 378.31911 270.09843 379.5625 272.90625 C 385.01889 285.22785 384.61955 284.76144 390.34375 285.09375 C 395.98192 285.42106 397.60785 287.28741 392.28125 287.3125 C 385.83334 287.3429 385.69874 287.92829 388.5625 302.8125 C 389.59513 308.17954 392.20648 322.66021 393.59375 330.8125 C 394.06172 333.5625 395.11265 340.42097 395.9375 346.0625 C 396.76234 351.70403 397.69383 356.76653 398.03125 357.3125 C 398.92305 358.75546 396.967 358.53887 395.78125 357.0625 C 395.22908 356.375 394.53621 354.2375 394.25 352.3125 C 393.96379 350.3875 392.96651 344.7625 392.03125 339.8125 C 391.09599 334.8625 389.96869 328.7875 389.53125 326.3125 C 385.1022 301.25332 383.48193 292.47405 382.9375 290.5625 C 382.41647 288.7331 381.5782 288.3125 378.46875 288.3125 C 373.22037 288.3125 372.61728 286.64799 377.5625 285.8125 C 382.15667 285.03632 382.17571 284.9332 377.875 275.40625 C 376.27392 271.85952 375.7582 269.6793 376.40625 269.03125 C 376.48726 268.95024 376.5932 268.89423 376.6875 268.875 z M 371.09375 330.53125 C 371.48785 330.41717 371.53125 331.01929 371.53125 332.53125 C 371.53125 333.98831 371.93443 336.2267 372.40625 337.5 C 373.68998 340.96437 374.71207 350.29881 373.8125 350.28125 C 373.38106 350.27325 372.57437 349.93533 372 349.53125 C 371.42563 349.12717 370.36704 345.27019 369.65625 340.9375 C 368.51097 333.9564 368.56265 332.87485 369.96875 331.46875 C 370.51208 330.92542 370.85729 330.5997 371.09375 330.53125 z "
       style="fill:#4d4d4d;fill-opacity:1" />
  </g>
  <path
     style="fill:#b7b2ae;fill-opacity:1"
     d="M 185.75 222.28125 C 183.41617 222.35604 181.46008 222.64533 181.125 223.1875 C 180.82311 223.67597 180.32004 229.18847 180.03125 235.4375 C 179.17257 254.01824 178.47239 261.53505 177.4375 263.46875 C 176.72069 264.80812 175.31259 265.3125 172.125 265.3125 C 168.44796 265.3125 167.6913 265.65981 167.21875 267.5625 C 166.91141 268.8 166.00337 272.5125 165.21875 275.8125 C 164.43413 279.1125 163.6159 282.4875 163.40625 283.3125 C 163.10344 284.50408 164.19312 284.81917 168.65625 284.90625 C 171.74634 284.96655 174.68454 285.2829 175.1875 285.59375 C 175.71367 285.91894 175.81573 289.46631 175.40625 293.96875 C 175.01482 298.27261 174.66413 304.1375 174.625 307 L 174.53125 312.21875 L 176.90625 309.84375 C 178.21167 308.53833 179.59263 305.81739 179.96875 303.8125 C 180.80198 299.37098 183.14244 299.63038 182.78125 304.125 C 182.64025 305.87951 183.40709 308.68746 184.53125 310.53125 C 185.62943 312.33243 186.60849 315.6125 186.6875 317.8125 C 186.7665 320.0125 187.16449 317.3125 187.59375 311.8125 C 188.02301 306.3125 188.9426 298.1 189.625 293.5625 L 190.875 285.3125 L 204.28125 285.3125 C 216.58621 285.3125 217.61595 285.16874 217.125 283.5625 C 216.8308 282.6 215.94636 279.3375 215.15625 276.3125 C 212.12846 264.72036 213.02192 265.41772 201.34375 265.09375 L 191.03125 264.8125 L 191.25 262.3125 C 192.63428 246.5384 194.47767 224.54782 194.5 223.5625 C 194.52081 222.64437 189.63972 222.1566 185.75 222.28125 z M 270.21875 224.21875 C 266.55504 224.39963 266.78856 227.63307 264.875 256.8125 C 264.55038 261.7625 263.77398 266.14097 263.15625 266.5625 C 262.53852 266.98402 257.98125 267.25139 253.03125 267.15625 L 244.03125 267 L 241.8125 271.40625 C 239.31736 276.32708 236.30601 283.54575 236.4375 284.3125 C 236.4847 284.5875 242.04035 285.0375 248.78125 285.3125 L 261.03125 285.8125 L 260.90625 291.8125 C 260.67161 301.62359 259.48271 323.58284 259.03125 326.5 L 258.59375 329.21875 L 265.3125 328.625 C 269.00677 328.29563 272.15316 327.94091 272.28125 327.84375 C 272.6585 327.55762 274.70308 306.53656 275.25 297.3125 C 275.52719 292.6375 276.18904 288.25 276.75 287.5625 C 277.31096 286.875 279.8611 286.31186 282.40625 286.3125 L 287.03125 286.3125 L 286.09375 276.84375 L 285.1875 267.40625 L 282.09375 267.09375 L 279.03125 266.8125 L 279.15625 245.5625 L 279.28125 224.3125 L 273.4375 224.3125 C 272.10237 224.3125 271.06422 224.17701 270.21875 224.21875 z M 174.75 331.3125 C 173.19024 331.3125 172.60177 332.41628 171.6875 336.96875 C 171.06157 340.08548 170.53125 342.98831 170.53125 343.40625 C 170.53125 345.18457 179.06115 345.79817 182.96875 344.3125 C 185.33473 343.41296 185.53125 342.86834 185.53125 337.25 C 185.53125 331.19504 185.51495 331.18546 182.78125 331.5 C 180.53575 331.75837 179.99687 332.36286 179.78125 334.8125 C 179.15842 341.88855 178.41055 344.3125 176.875 344.3125 C 175.53651 344.3125 175.407 343.34985 176 337.8125 C 176.6433 331.80539 176.54431 331.3125 174.75 331.3125 z M 270.25 331.3125 C 269.24771 331.29505 267.85564 331.45172 266 331.625 C 262.40257 331.96093 259.02757 332.48644 258.5 332.8125 C 257.97242 333.13856 257.53125 335.88246 257.53125 338.875 L 257.53125 344.3125 L 263.96875 344.3125 L 270.375 344.3125 L 271.46875 339.25 C 272.83848 332.86319 273.25688 331.36486 270.25 331.3125 z M 175.96875 347.96875 C 175.37273 347.99016 174.79439 348.03384 174.28125 348.09375 C 171.02872 348.47347 170.54315 348.85484 170.53125 351.15625 C 170.49515 358.1437 170.39201 358.22241 158.28125 358.53125 C 149.391 358.75796 147.1735 359.10547 146.96875 360.3125 C 146.26595 364.45563 144.55896 373.13 143.96875 375.5625 L 143.3125 378.3125 L 180.4375 378.3125 L 217.53125 378.3125 L 217.5625 373.0625 C 217.5675 370.175 217.84224 365.43669 218.1875 362.5625 L 218.8125 357.34375 L 201.4375 357.0625 L 184.03125 356.8125 L 183.96875 352.84375 C 183.90985 349.26771 183.62686 348.79364 180.96875 348.25 C 179.75076 348.0009 177.75681 347.90452 175.96875 347.96875 z M 270.6875 348.21875 L 263.875 348.5 C 257.94166 348.75885 257.01039 349.07241 256.75 350.8125 C 255.69183 357.88412 257.27196 357.3125 239.09375 357.3125 C 230.06169 357.3125 222.45463 357.65 222.21875 358.0625 C 221.98288 358.475 221.50477 363.2 221.125 368.5625 L 220.40625 378.3125 L 256.46875 378.3125 L 292.53125 378.3125 L 292.53125 369.5 C 292.53125 363.98889 292.09527 360.25152 291.34375 359.5 C 290.58356 358.73981 286.76034 358.3125 280.90625 358.3125 C 270.59519 358.3125 270.01038 357.94688 270.4375 352.03125 L 270.6875 348.21875 z "
     id="path4395" />
  <path
     style="fill:#425cc1;fill-opacity:1"
     d="M 207.3125 223.3125 C 203.60386 223.38016 204.11474 224.44996 207.53125 236.8125 C 208.74723 241.2125 209.92572 245.80812 210.15625 247.03125 C 210.38678 248.25439 211.06259 250.50439 211.65625 252.03125 C 212.74678 254.83602 216.84839 269.44062 218.625 276.8125 C 220.44951 284.38317 220.92575 283.77843 221.59375 273.03125 C 222.11908 264.57961 222.84397 260.87441 224.96875 255.875 L 227.6875 249.5 L 225.59375 245.40625 C 224.44374 243.15202 223.21481 241.3125 222.875 241.3125 C 222.53518 241.3125 220.32422 243.1125 217.9375 245.3125 C 215.55079 247.5125 213.12479 249.3125 212.5625 249.3125 C 210.15237 249.3125 211.89757 246.14327 216.5625 242.0625 L 221.59375 237.6875 L 217.8125 230.5 L 214.03125 223.3125 L 209.1875 223.3125 C 208.4828 223.3115 207.84231 223.30283 207.3125 223.3125 z M 128.28125 224.4375 C 125.37006 224.54858 122.11874 225.20996 118.46875 226.40625 C 110.3379 229.07115 108.82004 229.8527 104.53125 233.8125 C 102.60625 235.58983 96.53125 241.09268 91.03125 246.03125 C 64.07775 270.23337 57.41724 279.97699 54.53125 299.3125 C 53.91556 303.4375 52.98765 309.2875 52.46875 312.3125 C 51.94984 315.3375 50.61149 323.52503 49.5 330.53125 C 48.3885 337.53747 47.24829 343.86527 46.96875 344.59375 C 46.6892 345.32223 47.3633 346.74959 48.46875 347.75 C 50.15645 349.27735 51.47731 349.45386 56.59375 348.875 C 59.94504 348.49584 63.64358 347.7961 64.84375 347.3125 C 66.71977 346.55656 66.5403 346.4233 63.53125 346.40625 C 61.60625 346.39535 58.18748 346.74559 55.90625 347.1875 C 53.47451 347.65856 51.04101 347.59635 50.03125 347.03125 C 46.87512 345.265 50.56553 344.32857 60.78125 344.3125 C 70.96959 344.2965 75.4417 345.08157 87.03125 348.8125 C 95.28214 351.46865 96.23736 351.60898 97 350.375 C 97.54719 349.48963 98.28164 346.2345 100.53125 334.8125 C 101.07288 332.0625 102.13536 326.78288 102.875 323.09375 C 103.61464 319.40463 103.9469 315.99093 103.625 315.5 C 103.30309 315.00906 101.23125 314.35509 99.03125 314.0625 C 91.26676 313.02986 72.6231 302.3125 78.59375 302.3125 C 79.1754 302.3125 81.7629 303.4895 84.34375 304.9375 C 90.26002 308.25688 101.28384 312.3125 104.40625 312.3125 C 109.23408 312.3125 128.635 296.27687 136.15625 286.0625 C 144.66965 274.50073 148.79423 252.36665 145.0625 238.34375 C 142.49433 228.69323 137.01482 224.10425 128.28125 224.4375 z M 250.84375 224.84375 C 249.9771 224.82709 249.30625 224.8669 249.03125 224.96875 C 247.65201 225.47949 240.53125 235.84714 240.53125 237.34375 C 240.53125 238.0118 242.10625 240.30676 244.03125 242.4375 C 245.95625 244.56824 247.53125 246.73405 247.53125 247.25 C 247.53125 249.81955 245.3328 248.86002 241.6875 244.71875 L 237.625 240.125 L 234.28125 245.46875 C 226.92571 257.14767 225.23606 263.25616 223.9375 283.46875 C 223.35704 292.50396 223.9631 299.3125 225.34375 299.3125 C 225.74085 299.3125 227.04339 296.725 228.21875 293.5625 C 229.60179 289.84121 230.23928 286.0484 230.0625 282.8125 C 229.74586 277.01619 231.84719 261.30351 233.5625 256.5625 C 236.42216 248.6586 237.11513 256.09191 234.46875 266.3125 C 233.97031 268.2375 233.59289 272.2875 233.625 275.3125 L 233.65625 280.8125 L 235.09375 277.8125 C 237.86699 271.97633 242.40252 261.68921 246.5625 251.8125 C 248.87905 246.3125 251.99455 239.08606 253.5 235.78125 C 258.13966 225.5961 258.14593 225.59221 253.8125 225.0625 C 252.77258 224.93538 251.7104 224.86041 250.84375 224.84375 z M 292.25 263.03125 C 291.53007 263.05169 291.58415 266.23257 291.90625 277.8125 C 292.15103 286.6125 293.05072 303.7125 293.90625 315.8125 C 294.76179 327.9125 295.48083 340.66953 295.5 344.1875 C 295.5376 351.0968 295.18746 350.52466 307.53125 363.8125 C 309.06402 365.4625 311.11675 368.3875 312.09375 370.3125 C 314.48506 375.02411 315.1536 372.42038 313 366.78125 C 311.79498 363.62595 311.43427 360.80119 311.84375 357.34375 C 313.207 345.83321 320.91404 338.70664 333.84375 336.96875 C 338.97957 336.27844 342.53125 334.8006 342.53125 333.34375 C 342.53125 332.45164 331.08107 318.02373 326.84375 313.59375 C 323.53834 310.13805 312.93286 310.29573 305.6875 313.90625 C 297.35696 318.05753 297.46423 315.01842 305.8125 310.40625 C 308.62726 308.85118 311.38823 308.3125 316.5625 308.3125 L 323.5 308.3125 L 319.15625 301.5625 C 316.76472 297.85 313.86837 292.95848 312.71875 290.6875 C 310.47168 286.2486 299.32059 270.8947 293.25 263.875 C 292.81927 263.37692 292.48998 263.02444 292.25 263.03125 z M 180.5 311.5 C 180.42491 311.50229 180.35739 311.50764 180.28125 311.53125 C 178.41797 312.10909 175.76355 318.17627 174.96875 323.6875 C 174.40319 327.60916 174.54455 328.46206 175.65625 328.09375 C 176.41672 327.84181 177.44686 325.76197 177.9375 323.46875 C 178.49963 320.84143 179.37386 319.3125 180.3125 319.3125 C 181.4731 319.3125 181.69927 320.19592 181.28125 323.3125 C 180.74941 327.27763 181.76998 328.76127 182.9375 325.71875 C 184.6175 321.34077 182.82775 311.42915 180.5 311.5 z M 335.8125 330.4375 C 336.5686 330.44986 337.26077 330.53334 337.875 330.6875 C 342.09371 331.74632 340.97485 333.03082 335.21875 333.75 C 328.74347 334.55903 321.14918 337.94465 316.28125 342.21875 C 312.17492 345.82416 308.13539 355.16195 308.78125 359.5625 C 309.30182 363.10936 307.81349 363.09939 306.46875 359.5625 C 304.41092 354.14999 309.09291 343.23696 315.5 338.5 C 322.12415 333.60255 330.51979 330.351 335.8125 330.4375 z "
     id="path4391" />
  <path
     style="fill:#ffffff"
     d="m 237.42849,234.69258 c 3.97399,-5.83545 6.95328,-10.88206 6.62065,-11.21469 -0.33263,-0.33263 -6.43954,-0.78658 -13.57091,-1.00877 -14.79644,-0.46102 -14.09357,-1.1969 -8.4371,8.83338 1.70591,3.025 3.97863,7.40089 5.05048,9.7242 1.07184,2.32331 2.21041,4.23581 2.53013,4.25 0.31973,0.0142 3.83277,-4.74866 7.80675,-10.58412 z"
     id="path4351" />
  <path
     style="fill:#ffcc00"
     d="M 256.53125 117.1875 L 240.28125 118 C 222.44491 118.89124 158.87556 119.10809 148.59375 118.3125 L 142.125 117.8125 L 141.3125 122.3125 C 139.02995 134.90652 135.74059 141.3125 131.5625 141.3125 C 129.5912 141.3125 129.57557 141.3513 131.46875 146.5625 C 132.72767 150.02775 133.58548 155.89193 134 163.8125 C 134.93764 181.72933 138.39016 187.00071 152.59375 192.3125 L 158.53125 194.53125 L 158.53125 198.875 C 158.53125 204.01813 159.25604 204.55743 169.125 206.6875 C 186.46369 210.42979 194.14135 211.0878 217.53125 210.84375 C 228.75062 210.72669 234.89038 210.26069 236.6875 209.375 C 239.06347 208.20403 239.39434 207.33827 240 200.875 L 240.6875 193.6875 L 245.125 192.375 C 251.3696 190.53119 256.92808 186.19198 260.21875 180.59375 C 262.81241 176.18131 263.0709 174.86166 263.375 163.8125 C 263.63815 154.25114 264.19701 150.42575 266.125 145 C 267.45585 141.25472 268.53125 137.99222 268.53125 137.75 C 268.53125 137.50778 267.25225 137.3125 265.6875 137.3125 C 264.07888 137.3125 262.02973 136.39112 260.96875 135.21875 C 258.85478 132.88284 256.66018 125.48535 256.59375 120.5 L 256.53125 117.1875 z M 178.46875 132.53125 C 179.02977 132.5427 179.6022 132.63529 180.1875 132.84375 C 181.64492 133.36281 183.74384 135.02253 184.84375 136.5 C 186.61219 138.87547 186.69868 139.53827 185.5625 142.28125 C 183.37353 147.56589 177.2779 149.05915 173.46875 145.25 C 169.0899 140.87115 173.0456 132.42058 178.46875 132.53125 z M 215.4375 132.625 C 218.10171 132.5583 220.42299 134.13995 222.03125 137.25 C 223.43405 139.96272 223.4207 140.62144 222.09375 143.1875 C 219.97073 147.29297 215.34625 148.57046 211.25 146.1875 C 206.39387 143.36246 207.23755 135.4945 212.65625 133.25 C 213.61274 132.85381 214.54943 132.64723 215.4375 132.625 z M 213.21875 157.65625 C 216.89045 157.28254 217.14845 165.74816 213.28125 174.0625 C 210.95264 179.0689 207.46835 181.8025 200.84375 183.8125 C 195.15288 185.5392 195.10445 185.56291 190.25 183.78125 C 181.24408 180.47597 176.55552 173.6876 176.21875 163.4375 C 176.00852 157.03877 174.7428 157.47795 188.03125 159.28125 C 196.40981 160.41826 208.69146 159.78971 211.96875 158.0625 C 212.42043 157.82446 212.83892 157.69491 213.21875 157.65625 z M 237.875 195.53125 C 238.42055 195.51444 238.55039 195.78631 238.34375 196.40625 C 238.10005 197.13733 236.35263 198.13666 234.46875 198.59375 C 230.32798 199.59843 178.28463 200.79556 177.4375 199.90625 C 177.10866 199.56102 174.40866 199.24249 171.4375 199.21875 C 168.46635 199.19495 164.79375 198.9432 163.28125 198.65625 C 155.21652 197.12626 164.13352 196.59155 197.28125 196.625 C 217.49375 196.6454 235.10368 196.30983 236.40625 195.875 C 237.06899 195.65376 237.54767 195.54134 237.875 195.53125 z "
     id="path4349" />
  <g
     id="g4470">
    <path
       id="path4343"
       d="m 202.03236,180.12422 c 1.42473,-0.64915 2.4555,-1.85612 2.29535,-2.6877 -0.23427,-1.21649 -1.92062,-1.48264 -8.68934,-1.37138 -9.48959,0.15599 -11.78217,1.26492 -7.45823,3.6076 3.42872,1.85766 10.27617,2.08084 13.85222,0.45148 z"
       style="fill:#ff0000" />
    <path
       id="path4341"
       d="m 212.54042,164.19551 c 0,-2.61884 -0.27495,-2.97234 -1.75,-2.25 -2.24183,1.09785 -23.72351,1.11897 -28,0.0275 -3.14265,-0.80205 -3.25,-0.72773 -3.25,2.25 l 0,3.07946 16.5,0 16.5,0 0,-3.10699 z"
       style="fill:#ffffff" />
  </g>
  <path
     style="fill:#7e4e29;fill-opacity:1"
     d="M 271.46875 115.90625 C 267.75014 115.84691 260.28863 116.83498 259.9375 117.75 C 259.21307 119.63785 261.30297 131.3069 262.65625 132.9375 C 264.50596 135.16626 264.58224 134.10114 263 128.84375 C 261.0778 122.45677 261.08681 118.3125 263.03125 118.3125 C 264.09693 118.3125 264.52728 119.39831 264.53125 122.0625 C 264.54445 130.91357 268.63112 137.07865 270.15625 130.5625 C 270.51026 129.05 271.39977 125.34681 272.15625 122.34375 C 272.91272 119.3407 273.53009 116.6407 273.53125 116.34375 C 273.5325 116.0506 272.70829 115.92603 271.46875 115.90625 z M 122.15625 116.09375 C 120.4886 116.26459 121.25822 120.95814 124.1875 128.0625 C 127.25148 135.49356 128.48246 135.20285 130.40625 126.53125 C 131.96328 119.51282 133.06199 117.41663 134.4375 118.8125 C 135.64138 120.03418 134.06782 127.19786 131.40625 132.65625 C 129.09383 137.39858 129.09716 137.3125 131.5625 137.3125 C 132.84667 137.3125 133.9813 136.30665 134.65625 134.5625 C 135.91127 131.31935 138.76466 118.20216 138.3125 117.75 C 138.1407 117.5782 134.85328 117.20532 131 116.9375 C 127.14672 116.66968 123.33454 116.30311 122.53125 116.125 C 122.39823 116.09551 122.26743 116.08236 122.15625 116.09375 z "
     id="path4335" />
  <path
     style="fill:#ff0000"
     d="M 191.09375 19.09375 C 185.90335 19.094445 181.41883 19.172375 178.90625 19.3125 C 170.64951 19.77212 168.96415 20.22642 161.40625 24.0625 C 154.51355 27.56095 151.17397 30.20569 142.375 39.0625 C 129.14707 52.37739 124.97397 59.68035 118.0625 81.59375 C 117.23246 84.22547 116.53125 87.85732 116.53125 89.65625 C 116.53125 92.55848 113.20423 98.585701 110.6875 100.25 C 110.22026 100.55898 110.04317 102.3875 110.28125 104.3125 C 110.67476 107.4943 111.22759 108.00637 116.375 110.15625 C 129.68888 115.71695 182.84746 117.34767 249.03125 114.21875 C 263.39628 113.53963 272.24591 112.70214 274.53125 111.78125 C 276.45625 111.00556 279.60625 109.9931 281.53125 109.53125 C 284.85023 108.73495 285.05472 108.44872 285.34375 104 C 285.51139 101.41975 285.25086 99.3125 284.78125 99.3125 C 283.60408 99.3125 281.87938 94.04054 280.53125 86.40625 C 278.16114 72.98472 269.8446 54.98722 263.34375 49.1875 C 262.3467 48.29799 261.53125 47.157 261.53125 46.65625 C 261.53125 45.68937 260.82888 45.03916 253 38.875 C 250.266 36.72235 246.23125 33.31821 244.03125 31.3125 C 241.83125 29.3068 237.10625 25.91384 233.53125 23.75 L 227.03125 19.8125 L 207.53125 19.3125 C 202.16875 19.173595 196.28415 19.093055 191.09375 19.09375 z M 189.78125 20.3125 C 191.01139 20.3125 191.331 26.15069 191.90625 58.9375 C 192.27923 80.19519 192.36479 97.82272 192.09375 98.09375 C 191.82272 98.36478 191.35984 97.95372 191.09375 97.1875 C 189.92486 93.82168 189.33111 81.70494 188.84375 52.0625 C 188.39472 24.75214 188.53388 20.3125 189.78125 20.3125 z M 184 21.3125 C 186.83817 21.3125 185.57934 22.97243 180.96875 25.34375 C 175.25361 28.28315 164.56093 38.01323 159.46875 44.90625 C 154.8299 51.18563 149.71311 61.58515 147.21875 69.8125 C 146.21826 73.1125 144.98043 77.18595 144.46875 78.875 C 143.95707 80.56405 143.53125 83.1826 143.53125 84.6875 C 143.53125 88.79215 141.45772 96.3125 140.3125 96.3125 C 139.69855 96.3125 139.51616 94.26936 139.84375 91.0625 C 141.71945 72.70062 146.9693 57.16022 155.40625 45.0625 C 161.78227 35.91995 179.37561 21.3125 184 21.3125 z M 212.5625 21.3125 C 215.74296 21.3075 218.79312 23.33315 224.71875 29.40625 C 234.39054 39.31875 242.64695 54.39378 247.9375 71.8125 C 251.98952 85.15349 252.33352 86.42642 253.0625 91.0625 C 254.1233 97.8088 252.03764 96.05412 250.09375 88.5625 C 241.93297 57.11146 227.8559 32.17504 213.21875 23.25 C 210.10606 21.35203 210.07949 21.31617 212.5625 21.3125 z M 224.78125 21.3125 C 226.41966 21.3125 233.1426 25.56098 235.59375 28.15625 C 239.60862 32.40719 245.53975 41.56157 249 48.8125 C 254.03721 59.3679 254.17176 59.75665 256.03125 67.3125 C 256.91105 70.8875 258.03983 75.1625 258.53125 76.8125 C 259.97127 81.64753 260.92268 94.3125 259.84375 94.3125 C 259.3162 94.3125 258.11299 90.15 257.15625 85.0625 C 255.33902 75.39941 254.9315 73.93585 251.4375 63.3125 C 245.73662 45.9792 236.65924 31.67426 226.15625 23.53125 C 224.39501 22.16576 223.86835 21.3125 224.78125 21.3125 z M 203.03125 21.625 C 204.35826 22.06298 205.59256 36.46083 205.3125 48.3125 C 205.18903 53.5375 205.2112 66.7 205.375 77.5625 C 205.63764 94.97777 205.51084 97.3125 204.125 97.3125 C 202.76076 97.3125 202.54444 95.10228 202.5 80.5625 C 202.4718 71.35 202.35934 54.25005 202.25 42.5625 C 202.12083 28.75472 202.38147 21.41053 203.03125 21.625 z M 169.09375 22.3125 C 169.4532 22.3125 166.39811 25.84448 162.3125 30.1875 C 155.87316 37.03256 146.54972 50.49525 146.53125 52.96875 C 146.52825 53.42259 145.93409 54.9375 145.21875 56.3125 C 143.52297 59.57203 141.06411 67.4107 139.5625 74.3125 C 138.90435 77.3375 137.97104 81.41744 137.46875 83.40625 C 136.96646 85.39506 136.53125 89.10756 136.53125 91.65625 C 136.53125 94.20494 136.08125 96.3125 135.53125 96.3125 C 134.9559 96.3125 134.53125 93.20044 134.53125 89 C 134.53125 79.70411 137.34574 66.47207 141.25 57.3125 C 146.50717 44.97891 151.14831 37.66997 158.9375 29.46875 C 162.60821 25.60387 167.284 22.3125 169.09375 22.3125 z M 278.84375 94.6875 C 279.82988 94.656667 280.53125 94.86661 280.53125 95.21875 C 280.53125 97.45703 266.30695 99.820241 247.03125 100.8125 C 235.35003 101.41382 150.49149 102.30412 148.53125 101.84375 C 147.70625 101.64999 141.85625 100.96631 135.53125 100.3125 C 122.86794 99.003511 116.53125 97.68291 116.53125 96.375 C 116.53125 94.98582 119.56317 94.24484 121.375 95.1875 C 131.19539 100.29686 245.83998 100.02366 277.78125 94.8125 C 278.15938 94.75081 278.51504 94.697778 278.84375 94.6875 z M 280.6875 98.65625 C 281.59554 98.732057 281.7204 99.212186 281.15625 100.125 C 279.51549 102.7798 266.51201 105.17112 248 106.21875 C 226.04206 107.4614 144.93222 107.46244 136.03125 106.21875 C 127.26933 104.99403 113.51524 102.0763 113.0625 101.34375 C 112.84753 100.99594 113.01566 100.1513 113.4375 99.46875 C 113.99941 98.55956 114.91114 98.48397 116.84375 99.21875 C 118.29462 99.77037 123.64651 101.04906 128.75 102.03125 C 136.99011 103.6171 144.13362 103.78724 192.53125 103.71875 C 247.74676 103.64065 263.76715 102.85947 275.40625 99.65625 C 278.08236 98.919755 279.77946 98.580443 280.6875 98.65625 z "
     id="path4331" />
</svg>
